<svg width="17" height="22" viewBox="0 0 17 22" fill="none" xmlns="http://www.w3.org/2000/svg">
<g id="Group 1229">
<g id="Group 1235">
<path id="Vector" d="M6.92604 13.7047L6.96619 13.7371H7.0178H16.388C16.4207 13.7371 16.4577 13.7522 16.489 13.7888C16.5209 13.8262 16.5419 13.8812 16.5419 13.9424V14.7194C16.5419 14.7807 16.5209 14.8357 16.489 14.873C16.4577 14.9097 16.4207 14.9247 16.388 14.9247L6.53787 14.9247L6.53748 14.9247C6.5126 14.9248 6.48582 14.9163 6.46055 14.8966C6.46043 14.8965 6.46032 14.8964 6.4602 14.8963L2.49849 11.735L2.49849 11.735L2.49779 11.7344C2.48087 11.7211 2.46495 11.7028 2.45191 11.6798C2.43887 11.6567 2.4293 11.6299 2.42446 11.6007C2.41963 11.5716 2.41976 11.5415 2.42483 11.5124C2.42929 11.4868 2.43739 11.4631 2.44827 11.4422L2.98959 10.7638L2.99631 10.7554L3.00172 10.7461C3.01493 10.7233 3.03094 10.7054 3.04789 10.6924C3.06463 10.6795 3.082 10.6716 3.09879 10.6678C3.11552 10.6642 3.13253 10.6645 3.14929 10.6687C3.16626 10.6729 3.18381 10.6814 3.20062 10.695C3.20063 10.695 3.20063 10.695 3.20064 10.695L6.92604 13.7047Z" fill="#333333" stroke="#333333" stroke-width="0.292053"/>
<path id="Vector_2" d="M1.39923 15.8534V15.9995H1.54526H15.1435H16.5427V20.7703C16.5427 20.8372 16.5203 20.8972 16.4862 20.9379C16.4528 20.9779 16.4137 20.9938 16.3797 20.9938H15.4526C15.4186 20.9938 15.3795 20.9779 15.346 20.9379C15.312 20.8972 15.2895 20.8372 15.2895 20.7703V17.1871V17.0411H15.1435H1.54526H1.39923V17.1871V20.7703C1.39923 20.8372 1.37678 20.8972 1.34272 20.9379C1.30929 20.9779 1.27016 20.9938 1.2362 20.9938H0.309051C0.2751 20.9938 0.235961 20.9779 0.202539 20.9379C0.168473 20.8972 0.146027 20.8372 0.146027 20.7703V7.09637C0.146027 7.02948 0.168474 6.96946 0.202538 6.92873C0.235961 6.88876 0.2751 6.87283 0.309051 6.87283H1.2362C1.27015 6.87283 1.30929 6.88876 1.34272 6.92873C1.37678 6.96946 1.39923 7.02948 1.39923 7.09637V15.8534Z" fill="#333333" stroke="#333333" stroke-width="0.292053"/>
</g>
<path id="Path" d="M11.9524 7.86628V6.0042H13.8145C13.8763 6.0042 13.9355 5.97968 13.9791 5.93603C14.0228 5.89238 14.0473 5.83317 14.0473 5.77144C14.0473 5.70971 14.0228 5.65051 13.9791 5.60686C13.9355 5.56321 13.8763 5.53868 13.8145 5.53868H11.9524V3.67661C11.9524 3.61488 11.9279 3.55567 11.8843 3.51202C11.8406 3.46837 11.7814 3.44385 11.7197 3.44385C11.658 3.44385 11.5988 3.46837 11.5551 3.51202C11.5114 3.55567 11.4869 3.61488 11.4869 3.67661V5.53868H9.62485C9.56312 5.53868 9.50391 5.56321 9.46026 5.60686C9.41661 5.65051 9.39209 5.70971 9.39209 5.77144C9.39209 5.83317 9.41661 5.89238 9.46026 5.93603C9.50391 5.97968 9.56312 6.0042 9.62485 6.0042H11.4869V7.86628C11.4869 7.92801 11.5114 7.98721 11.5551 8.03087C11.5988 8.07452 11.658 8.09904 11.7197 8.09904C11.7814 8.09904 11.8406 8.07452 11.8843 8.03087C11.9279 7.98721 11.9524 7.92801 11.9524 7.86628Z" fill="#CCCCFF" stroke="#CCCCFF" stroke-width="0.417219"/>
<path id="Compound Path" d="M16.4462 5.77152C16.4508 4.83043 16.1757 3.90919 15.6557 3.12478C15.1357 2.34037 14.3944 1.72817 13.5258 1.3659C12.6572 1.00363 11.7006 0.907639 10.7774 1.09011C9.85411 1.27258 9.00591 1.72529 8.34045 2.39075C7.67499 3.0562 7.22229 3.9044 7.03982 4.82764C6.85735 5.75089 6.95334 6.70753 7.31561 7.57611C7.67788 8.44469 8.29008 9.18603 9.07449 9.70601C9.8589 10.226 10.7801 10.5011 11.7212 10.4965C12.9725 10.4904 14.1708 9.99064 15.0556 9.10585C15.9403 8.22106 16.4401 7.02278 16.4462 5.77152ZM7.43845 5.77152C7.43384 4.92349 7.6811 4.09318 8.14888 3.38582C8.61667 2.67847 9.28393 2.12592 10.0661 1.79819C10.8482 1.47047 11.7101 1.38232 12.5424 1.54494C13.3747 1.70755 14.14 2.1136 14.7413 2.71162C15.3426 3.30964 15.7528 4.07271 15.9199 4.90411C16.0871 5.73552 16.0036 6.59783 15.6802 7.38177C15.3567 8.1657 14.8078 8.83595 14.103 9.30759C13.3982 9.77922 12.5693 10.031 11.7212 10.031C10.5894 10.031 9.50355 9.58301 8.70104 8.78486C7.89853 7.98671 7.4446 6.90334 7.43845 5.77152Z" fill="#CCCCFF" stroke="#CCCCFF" stroke-width="0.417219"/>
</g>
</svg>
