<svg width="15" height="21" viewBox="0 0 15 21" fill="none" xmlns="http://www.w3.org/2000/svg">
<path d="M8.3125 21C5.65887 21 3.5 18.7685 3.5 16.0254V10.9375H4.375V16.0254C4.375 18.2859 6.14145 20.125 8.3125 20.125C10.4836 20.125 12.25 18.2859 12.25 16.0254V8.3125H13.125V16.0254C13.125 18.7685 10.9661 21 8.3125 21Z" fill="#333333"/>
<path d="M12.6875 8.75C11.4814 8.75 10.5 7.76862 10.5 6.5625C10.5 5.35638 11.4814 4.375 12.6875 4.375C13.8936 4.375 14.875 5.35638 14.875 6.5625C14.875 7.76862 13.8936 8.75 12.6875 8.75Z" fill="#FFDD66"/>
<path d="M3.9375 11.375C1.76645 11.375 0 9.44342 0 7.069V2.59189C0 1.16275 1.07068 0 2.38681 0C2.62842 0 2.82431 0.195892 2.82431 0.4375C2.82431 0.679108 2.62842 0.875 2.38681 0.875C1.55325 0.875 0.875 1.64511 0.875 2.59189V7.069C0.875 8.96085 2.24881 10.5 3.9375 10.5C5.62619 10.5 7 8.96085 7 7.069V2.59189C7 1.64511 6.32175 0.875 5.48819 0.875H5.43051C5.1889 0.875 4.99301 0.679108 4.99301 0.4375C4.99301 0.195892 5.1889 0 5.43051 0H5.48819C6.80432 0 7.875 1.16275 7.875 2.59189V7.069C7.875 9.44342 6.10855 11.375 3.9375 11.375Z" fill="#333333"/>
</svg>
