<svg width="23" height="22" viewBox="0 0 23 22" fill="none" xmlns="http://www.w3.org/2000/svg">
<path d="M11.6586 2.98344V1.20252C11.6586 1.09111 11.5675 1 11.4558 1C11.3444 1 11.2533 1.09111 11.2533 1.20252V2.98344C5.61508 3.0734 1.07617 6.8795 1.07617 12.5443C1.07617 12.5443 2.59368 10.9241 4.56974 10.9241C6.54602 10.9241 8.21531 12.5443 8.21531 12.5443C8.21531 12.5443 9.35315 11.0498 11.2533 10.9439V18.3673C11.2533 20.3053 9.85783 20.595 9.02561 20.595C7.6721 20.595 6.79767 19.7208 6.79767 18.3673C6.79767 18.2556 6.70679 18.1645 6.59539 18.1645C6.48375 18.1645 6.39264 18.2556 6.39264 18.3673C6.39264 19.9422 7.45044 21 9.02561 21C10.6741 21 11.6586 20.0158 11.6586 18.3673V10.9437C13.5588 11.0496 14.6964 12.544 14.6964 12.544C14.6964 12.544 16.3301 10.9239 18.3419 10.9239C20.354 10.9239 21.8355 12.544 21.8355 12.544C21.8355 6.8795 17.2968 3.0734 11.6586 2.98344ZM18.3419 10.5191C16.7075 10.5191 15.3316 11.4786 14.7314 11.9722C14.2281 11.4567 13.0882 10.5191 11.4561 10.5191C9.82162 10.5191 8.68101 11.4588 8.1784 11.9748C7.57315 11.4835 6.18089 10.5191 4.56997 10.5191C3.28912 10.5191 2.20133 11.1266 1.52411 11.6258C1.97805 6.79508 6.01459 3.37971 11.4558 3.37971C16.8941 3.37971 20.929 6.79093 21.3871 11.617C20.7147 11.1193 19.6362 10.5191 18.3419 10.5191Z" fill="#333333" stroke="#333333" stroke-width="0.5"/>
</svg>
