<svg width="19" height="26" viewBox="0 0 19 26" fill="none" xmlns="http://www.w3.org/2000/svg">
<path d="M9.5388 14.0521C10.2046 14.0521 10.8039 13.6281 11.0297 12.9968C11.0825 12.8497 11.0057 12.6875 10.8586 12.6351C10.7118 12.5823 10.5496 12.6589 10.4968 12.8062C10.3511 13.2127 9.96629 13.4862 9.53881 13.4862C9.11133 13.4862 8.72647 13.2129 8.58078 12.8062C8.528 12.6589 8.36543 12.5823 8.21902 12.6351C8.0719 12.6877 7.99514 12.8499 8.04791 12.9968C8.27374 13.6282 8.87308 14.0521 9.53882 14.0521H9.5388Z" fill="#333333"/>
<mask id="path-2-outside-1_14302_135338" maskUnits="userSpaceOnUse" x="0" y="0" width="19" height="26" fill="black">
<rect fill="white" width="19" height="26"/>
<path d="M12.6708 15.4954C13.0936 15.1893 13.4669 14.8265 13.7798 14.418C15.7457 13.0347 16.9184 10.7832 16.9184 8.38013C16.9184 4.31053 13.6079 1 9.53871 1C5.46956 1 2.15903 4.31053 2.15903 8.38013C2.15903 10.7831 3.3319 13.0352 5.29794 14.4184C5.61084 14.8267 5.98379 15.1894 6.40649 15.4954C3.2381 16.4891 1 19.4781 1 22.8373V24.717C1 24.8733 1.12651 25 1.28305 25H17.7936C17.95 25 18.0767 24.8735 18.0767 24.717V22.8373C18.0767 19.4782 15.8392 16.4889 12.6708 15.4954ZM14.3127 8.25905V9.88641H12.7299C12.5986 9.24642 12.0309 8.76345 11.3526 8.76345C10.6742 8.76345 10.1065 9.24637 9.9752 9.88641H9.10259C8.97129 9.24642 8.40361 8.76345 7.72522 8.76345C7.04684 8.76345 6.47913 9.24637 6.34767 9.88641H4.76489V8.55539C4.83774 8.55735 4.92125 8.55859 5.01667 8.55859C6.30324 8.55859 9.51625 8.32103 11.6254 6.14018C12.6799 7.44491 13.7924 7.73806 14.3124 7.80134L14.3127 8.25905ZM12.1925 10.1695C12.1925 10.6327 11.8158 11.0094 11.3526 11.0094C10.8892 11.0094 10.5125 10.6327 10.5125 10.1695C10.5125 9.70625 10.8892 9.32957 11.3524 9.32957C11.8158 9.32957 12.1925 9.70625 12.1925 10.1695ZM8.56513 10.1695C8.56513 10.6327 8.18845 11.0094 7.72522 11.0094C7.26181 11.0094 6.88514 10.6327 6.88514 10.1695C6.88514 9.70625 7.26182 9.32957 7.72504 9.32957C8.18846 9.32957 8.56513 9.70625 8.56513 10.1695ZM2.72515 8.37986C2.72515 4.62261 5.78178 1.56603 9.53899 1.56603C13.2962 1.56603 16.3528 4.62266 16.3528 8.37986C16.3528 10.0996 15.7009 11.7345 14.5632 12.9785C14.6924 12.6173 14.783 12.2395 14.832 11.8497C15.5685 11.5098 16.0554 10.7721 16.0554 9.95318C16.0554 9.39507 15.8374 8.87007 15.4413 8.47397C15.277 8.30944 15.0851 8.17387 14.8792 8.07366V7.53474C14.8792 7.45709 14.8472 7.38264 14.7907 7.32916C14.734 7.27586 14.6572 7.24761 14.5807 7.25241C14.5679 7.25241 13.2548 7.29913 12.0091 5.70765C12.2891 5.36011 12.5436 4.97205 12.7618 4.53565C12.8318 4.39582 12.7751 4.22578 12.6353 4.15595C12.4954 4.08665 12.3257 4.14262 12.2555 4.28245C10.181 8.43075 4.56338 7.98103 4.50789 7.9773C4.50415 7.97694 4.50078 7.97872 4.49705 7.97854C4.46666 7.97694 4.4361 7.98049 4.40608 7.98884C4.40217 7.98991 4.39826 7.99027 4.39435 7.99169C4.39062 7.99293 4.38689 7.99293 4.38333 7.99435C3.5699 8.29996 3.02352 9.08725 3.02352 9.95344C3.02352 10.5112 3.24154 11.0364 3.63759 11.4325C3.8158 11.6107 4.02457 11.7535 4.24756 11.8557C4.29677 12.2436 4.38703 12.6196 4.51567 12.979C3.37761 11.7345 2.72515 10.0996 2.72515 8.37986ZM14.8786 11.1728V8.73343C14.9355 8.77625 14.9897 8.82333 15.0407 8.87415C15.3297 9.16324 15.4889 9.54666 15.4889 9.95322C15.4889 10.439 15.2555 10.8884 14.8786 11.1728ZM4.19891 8.73465V11.1729C4.14223 11.1298 4.08803 11.0825 4.03686 11.0317C3.74778 10.7426 3.58857 10.3595 3.58857 9.95298C3.58857 9.46932 3.82275 9.01912 4.19891 8.73465ZM5.7488 14.0756C5.74401 14.0676 5.7369 14.0612 5.73121 14.0536C5.20671 13.3614 4.87248 12.5284 4.78792 11.6309V11.6283C4.77264 11.4824 4.765 11.3308 4.765 11.1777L4.76482 10.4526H6.34761C6.47891 11.0926 7.04659 11.5755 7.72497 11.5755C8.40335 11.5755 8.97107 11.0926 9.10234 10.4526H9.97495C10.1063 11.0926 10.6739 11.5755 11.3523 11.5755C12.0307 11.5755 12.5984 11.0926 12.7299 10.4526H14.3126V11.1778C14.3126 11.331 14.3048 11.4824 14.2897 11.6284V11.6309C14.2053 12.5277 13.8715 13.3603 13.3477 14.0522C13.3413 14.0605 13.3336 14.0677 13.3283 14.0765C12.8224 14.7357 12.1439 15.2658 11.34 15.5962L11.3386 15.5966C10.196 16.0681 8.88146 16.0681 7.7388 15.5966L7.73738 15.5962C6.93337 15.2656 6.25466 14.7352 5.7488 14.0756ZM9.2557 24.4333H1.56671V22.8366C1.56671 19.5544 3.87477 16.6564 7.0669 15.9036C7.15894 15.9518 7.25276 15.9973 7.34817 16.0405V18.0152C7.34817 19.1269 8.18148 20.0459 9.25609 20.1854L9.2557 24.4333ZM7.91386 18.0152V16.2631C8.96022 16.6014 10.1173 16.6014 11.1636 16.2631V18.0152C11.1636 18.9111 10.4348 19.6399 9.53871 19.6399C8.64268 19.6397 7.91386 18.9109 7.91386 18.0152ZM17.511 24.4333H9.822V20.1855C10.8966 20.046 11.7299 19.127 11.7299 18.0153V16.0406C11.8253 15.9974 11.9192 15.9519 12.011 15.9037C15.2032 16.6564 17.5112 19.5542 17.5112 22.8367L17.511 24.4333Z"/>
</mask>
<path d="M12.6708 15.4954C13.0936 15.1893 13.4669 14.8265 13.7798 14.418C15.7457 13.0347 16.9184 10.7832 16.9184 8.38013C16.9184 4.31053 13.6079 1 9.53871 1C5.46956 1 2.15903 4.31053 2.15903 8.38013C2.15903 10.7831 3.3319 13.0352 5.29794 14.4184C5.61084 14.8267 5.98379 15.1894 6.40649 15.4954C3.2381 16.4891 1 19.4781 1 22.8373V24.717C1 24.8733 1.12651 25 1.28305 25H17.7936C17.95 25 18.0767 24.8735 18.0767 24.717V22.8373C18.0767 19.4782 15.8392 16.4889 12.6708 15.4954ZM14.3127 8.25905V9.88641H12.7299C12.5986 9.24642 12.0309 8.76345 11.3526 8.76345C10.6742 8.76345 10.1065 9.24637 9.9752 9.88641H9.10259C8.97129 9.24642 8.40361 8.76345 7.72522 8.76345C7.04684 8.76345 6.47913 9.24637 6.34767 9.88641H4.76489V8.55539C4.83774 8.55735 4.92125 8.55859 5.01667 8.55859C6.30324 8.55859 9.51625 8.32103 11.6254 6.14018C12.6799 7.44491 13.7924 7.73806 14.3124 7.80134L14.3127 8.25905ZM12.1925 10.1695C12.1925 10.6327 11.8158 11.0094 11.3526 11.0094C10.8892 11.0094 10.5125 10.6327 10.5125 10.1695C10.5125 9.70625 10.8892 9.32957 11.3524 9.32957C11.8158 9.32957 12.1925 9.70625 12.1925 10.1695ZM8.56513 10.1695C8.56513 10.6327 8.18845 11.0094 7.72522 11.0094C7.26181 11.0094 6.88514 10.6327 6.88514 10.1695C6.88514 9.70625 7.26182 9.32957 7.72504 9.32957C8.18846 9.32957 8.56513 9.70625 8.56513 10.1695ZM2.72515 8.37986C2.72515 4.62261 5.78178 1.56603 9.53899 1.56603C13.2962 1.56603 16.3528 4.62266 16.3528 8.37986C16.3528 10.0996 15.7009 11.7345 14.5632 12.9785C14.6924 12.6173 14.783 12.2395 14.832 11.8497C15.5685 11.5098 16.0554 10.7721 16.0554 9.95318C16.0554 9.39507 15.8374 8.87007 15.4413 8.47397C15.277 8.30944 15.0851 8.17387 14.8792 8.07366V7.53474C14.8792 7.45709 14.8472 7.38264 14.7907 7.32916C14.734 7.27586 14.6572 7.24761 14.5807 7.25241C14.5679 7.25241 13.2548 7.29913 12.0091 5.70765C12.2891 5.36011 12.5436 4.97205 12.7618 4.53565C12.8318 4.39582 12.7751 4.22578 12.6353 4.15595C12.4954 4.08665 12.3257 4.14262 12.2555 4.28245C10.181 8.43075 4.56338 7.98103 4.50789 7.9773C4.50415 7.97694 4.50078 7.97872 4.49705 7.97854C4.46666 7.97694 4.4361 7.98049 4.40608 7.98884C4.40217 7.98991 4.39826 7.99027 4.39435 7.99169C4.39062 7.99293 4.38689 7.99293 4.38333 7.99435C3.5699 8.29996 3.02352 9.08725 3.02352 9.95344C3.02352 10.5112 3.24154 11.0364 3.63759 11.4325C3.8158 11.6107 4.02457 11.7535 4.24756 11.8557C4.29677 12.2436 4.38703 12.6196 4.51567 12.979C3.37761 11.7345 2.72515 10.0996 2.72515 8.37986ZM14.8786 11.1728V8.73343C14.9355 8.77625 14.9897 8.82333 15.0407 8.87415C15.3297 9.16324 15.4889 9.54666 15.4889 9.95322C15.4889 10.439 15.2555 10.8884 14.8786 11.1728ZM4.19891 8.73465V11.1729C4.14223 11.1298 4.08803 11.0825 4.03686 11.0317C3.74778 10.7426 3.58857 10.3595 3.58857 9.95298C3.58857 9.46932 3.82275 9.01912 4.19891 8.73465ZM5.7488 14.0756C5.74401 14.0676 5.7369 14.0612 5.73121 14.0536C5.20671 13.3614 4.87248 12.5284 4.78792 11.6309V11.6283C4.77264 11.4824 4.765 11.3308 4.765 11.1777L4.76482 10.4526H6.34761C6.47891 11.0926 7.04659 11.5755 7.72497 11.5755C8.40335 11.5755 8.97107 11.0926 9.10234 10.4526H9.97495C10.1063 11.0926 10.6739 11.5755 11.3523 11.5755C12.0307 11.5755 12.5984 11.0926 12.7299 10.4526H14.3126V11.1778C14.3126 11.331 14.3048 11.4824 14.2897 11.6284V11.6309C14.2053 12.5277 13.8715 13.3603 13.3477 14.0522C13.3413 14.0605 13.3336 14.0677 13.3283 14.0765C12.8224 14.7357 12.1439 15.2658 11.34 15.5962L11.3386 15.5966C10.196 16.0681 8.88146 16.0681 7.7388 15.5966L7.73738 15.5962C6.93337 15.2656 6.25466 14.7352 5.7488 14.0756ZM9.2557 24.4333H1.56671V22.8366C1.56671 19.5544 3.87477 16.6564 7.0669 15.9036C7.15894 15.9518 7.25276 15.9973 7.34817 16.0405V18.0152C7.34817 19.1269 8.18148 20.0459 9.25609 20.1854L9.2557 24.4333ZM7.91386 18.0152V16.2631C8.96022 16.6014 10.1173 16.6014 11.1636 16.2631V18.0152C11.1636 18.9111 10.4348 19.6399 9.53871 19.6399C8.64268 19.6397 7.91386 18.9109 7.91386 18.0152ZM17.511 24.4333H9.822V20.1855C10.8966 20.046 11.7299 19.127 11.7299 18.0153V16.0406C11.8253 15.9974 11.9192 15.9519 12.011 15.9037C15.2032 16.6564 17.5112 19.5542 17.5112 22.8367L17.511 24.4333Z" fill="#333333"/>
<path d="M12.6708 15.4954C13.0936 15.1893 13.4669 14.8265 13.7798 14.418C15.7457 13.0347 16.9184 10.7832 16.9184 8.38013C16.9184 4.31053 13.6079 1 9.53871 1C5.46956 1 2.15903 4.31053 2.15903 8.38013C2.15903 10.7831 3.3319 13.0352 5.29794 14.4184C5.61084 14.8267 5.98379 15.1894 6.40649 15.4954C3.2381 16.4891 1 19.4781 1 22.8373V24.717C1 24.8733 1.12651 25 1.28305 25H17.7936C17.95 25 18.0767 24.8735 18.0767 24.717V22.8373C18.0767 19.4782 15.8392 16.4889 12.6708 15.4954ZM14.3127 8.25905V9.88641H12.7299C12.5986 9.24642 12.0309 8.76345 11.3526 8.76345C10.6742 8.76345 10.1065 9.24637 9.9752 9.88641H9.10259C8.97129 9.24642 8.40361 8.76345 7.72522 8.76345C7.04684 8.76345 6.47913 9.24637 6.34767 9.88641H4.76489V8.55539C4.83774 8.55735 4.92125 8.55859 5.01667 8.55859C6.30324 8.55859 9.51625 8.32103 11.6254 6.14018C12.6799 7.44491 13.7924 7.73806 14.3124 7.80134L14.3127 8.25905ZM12.1925 10.1695C12.1925 10.6327 11.8158 11.0094 11.3526 11.0094C10.8892 11.0094 10.5125 10.6327 10.5125 10.1695C10.5125 9.70625 10.8892 9.32957 11.3524 9.32957C11.8158 9.32957 12.1925 9.70625 12.1925 10.1695ZM8.56513 10.1695C8.56513 10.6327 8.18845 11.0094 7.72522 11.0094C7.26181 11.0094 6.88514 10.6327 6.88514 10.1695C6.88514 9.70625 7.26182 9.32957 7.72504 9.32957C8.18846 9.32957 8.56513 9.70625 8.56513 10.1695ZM2.72515 8.37986C2.72515 4.62261 5.78178 1.56603 9.53899 1.56603C13.2962 1.56603 16.3528 4.62266 16.3528 8.37986C16.3528 10.0996 15.7009 11.7345 14.5632 12.9785C14.6924 12.6173 14.783 12.2395 14.832 11.8497C15.5685 11.5098 16.0554 10.7721 16.0554 9.95318C16.0554 9.39507 15.8374 8.87007 15.4413 8.47397C15.277 8.30944 15.0851 8.17387 14.8792 8.07366V7.53474C14.8792 7.45709 14.8472 7.38264 14.7907 7.32916C14.734 7.27586 14.6572 7.24761 14.5807 7.25241C14.5679 7.25241 13.2548 7.29913 12.0091 5.70765C12.2891 5.36011 12.5436 4.97205 12.7618 4.53565C12.8318 4.39582 12.7751 4.22578 12.6353 4.15595C12.4954 4.08665 12.3257 4.14262 12.2555 4.28245C10.181 8.43075 4.56338 7.98103 4.50789 7.9773C4.50415 7.97694 4.50078 7.97872 4.49705 7.97854C4.46666 7.97694 4.4361 7.98049 4.40608 7.98884C4.40217 7.98991 4.39826 7.99027 4.39435 7.99169C4.39062 7.99293 4.38689 7.99293 4.38333 7.99435C3.5699 8.29996 3.02352 9.08725 3.02352 9.95344C3.02352 10.5112 3.24154 11.0364 3.63759 11.4325C3.8158 11.6107 4.02457 11.7535 4.24756 11.8557C4.29677 12.2436 4.38703 12.6196 4.51567 12.979C3.37761 11.7345 2.72515 10.0996 2.72515 8.37986ZM14.8786 11.1728V8.73343C14.9355 8.77625 14.9897 8.82333 15.0407 8.87415C15.3297 9.16324 15.4889 9.54666 15.4889 9.95322C15.4889 10.439 15.2555 10.8884 14.8786 11.1728ZM4.19891 8.73465V11.1729C4.14223 11.1298 4.08803 11.0825 4.03686 11.0317C3.74778 10.7426 3.58857 10.3595 3.58857 9.95298C3.58857 9.46932 3.82275 9.01912 4.19891 8.73465ZM5.7488 14.0756C5.74401 14.0676 5.7369 14.0612 5.73121 14.0536C5.20671 13.3614 4.87248 12.5284 4.78792 11.6309V11.6283C4.77264 11.4824 4.765 11.3308 4.765 11.1777L4.76482 10.4526H6.34761C6.47891 11.0926 7.04659 11.5755 7.72497 11.5755C8.40335 11.5755 8.97107 11.0926 9.10234 10.4526H9.97495C10.1063 11.0926 10.6739 11.5755 11.3523 11.5755C12.0307 11.5755 12.5984 11.0926 12.7299 10.4526H14.3126V11.1778C14.3126 11.331 14.3048 11.4824 14.2897 11.6284V11.6309C14.2053 12.5277 13.8715 13.3603 13.3477 14.0522C13.3413 14.0605 13.3336 14.0677 13.3283 14.0765C12.8224 14.7357 12.1439 15.2658 11.34 15.5962L11.3386 15.5966C10.196 16.0681 8.88146 16.0681 7.7388 15.5966L7.73738 15.5962C6.93337 15.2656 6.25466 14.7352 5.7488 14.0756ZM9.2557 24.4333H1.56671V22.8366C1.56671 19.5544 3.87477 16.6564 7.0669 15.9036C7.15894 15.9518 7.25276 15.9973 7.34817 16.0405V18.0152C7.34817 19.1269 8.18148 20.0459 9.25609 20.1854L9.2557 24.4333ZM7.91386 18.0152V16.2631C8.96022 16.6014 10.1173 16.6014 11.1636 16.2631V18.0152C11.1636 18.9111 10.4348 19.6399 9.53871 19.6399C8.64268 19.6397 7.91386 18.9109 7.91386 18.0152ZM17.511 24.4333H9.822V20.1855C10.8966 20.046 11.7299 19.127 11.7299 18.0153V16.0406C11.8253 15.9974 11.9192 15.9519 12.011 15.9037C15.2032 16.6564 17.5112 19.5542 17.5112 22.8367L17.511 24.4333Z" stroke="#333333" stroke-width="0.3" mask="url(#path-2-outside-1_14302_135338)"/>
<path d="M14.0536 21.3859H13.6536V20.9859C13.6536 20.8296 13.5271 20.7029 13.3706 20.7029H12.6023C12.4459 20.7029 12.3192 20.8294 12.3192 20.9859V21.3859H11.9193C11.7629 21.3859 11.6362 21.5124 11.6362 21.6689V22.4372C11.6362 22.5936 11.7627 22.7203 11.9193 22.7203H12.3192V23.1202C12.3192 23.2766 12.4457 23.4033 12.6023 23.4033H13.3706C13.527 23.4033 13.6536 23.2768 13.6536 23.1202V22.7203H14.0536C14.21 22.7203 14.3366 22.5938 14.3366 22.4372V21.6689C14.3366 21.5126 14.21 21.3859 14.0536 21.3859Z" fill="#FFDD66"/>
<path d="M8.06404 10.1696C8.06404 10.3572 7.91194 10.5093 7.72431 10.5093C7.53668 10.5093 7.38477 10.3572 7.38477 10.1696C7.38477 9.98193 7.53668 9.82983 7.72431 9.82983C7.91194 9.82983 8.06404 9.98193 8.06404 10.1696Z" fill="#333333"/>
<path d="M11.6921 10.1696C11.6921 10.3572 11.5401 10.5093 11.3524 10.5093C11.1648 10.5093 11.0127 10.3572 11.0127 10.1696C11.0127 9.98193 11.1648 9.82983 11.3524 9.82983C11.5401 9.82983 11.6921 9.98193 11.6921 10.1696Z" fill="#333333"/>
</svg>
