<svg width="25" height="24" viewBox="0 0 25 24" fill="none" xmlns="http://www.w3.org/2000/svg">
<path d="M23.3541 10.4629C23.2842 10.4658 23.2145 10.4731 23.1456 10.4846V10.3816C23.1451 10.0306 23.0282 9.68921 22.8122 9.40836C22.5962 9.1275 22.2928 8.92231 21.9473 8.82345C21.856 6.45471 20.8269 4.21252 19.0761 2.56739C17.3252 0.92227 14.9886 0.00210721 12.5567 3.61471e-06C10.1247 -0.00209998 7.7865 0.914019 6.03264 2.55611C4.27877 4.19821 3.24563 6.43861 3.15002 8.80719C2.78986 8.89526 2.47013 9.09794 2.2415 9.38313C2.01286 9.66832 1.88839 10.0197 1.88779 10.3816V10.4711C1.81484 10.4636 1.74147 10.4609 1.66815 10.4629C1.22708 10.4672 0.805295 10.6398 0.493394 10.9438C0.181492 11.2479 0.00434587 11.659 0 12.0889V15.3028C0.00434587 15.7327 0.181492 16.1438 0.493394 16.4479C0.805295 16.7519 1.22708 16.9245 1.66815 16.9288C1.73806 16.9259 1.80771 16.9186 1.87667 16.9071V16.9965C1.87667 17.4306 2.05359 17.8469 2.36852 18.1539C2.68344 18.4609 3.11057 18.6333 3.55594 18.6333C4.00131 18.6333 4.42844 18.4609 4.74336 18.1539C5.05829 17.8469 5.23521 17.4306 5.23521 16.9965V10.3816C5.23271 10.3254 5.22714 10.2693 5.21853 10.2136V9.1676C5.21853 7.27811 5.98861 5.46601 7.35936 4.12994C8.73012 2.79387 10.5893 2.04327 12.5278 2.04327C14.4663 2.04327 16.3255 2.79387 17.6962 4.12994C19.067 5.46601 19.8371 7.27811 19.8371 9.1676V9.95348C19.797 10.0929 19.7764 10.2369 19.7759 10.3816V16.9938C19.7761 17.1058 19.7883 17.2175 19.8121 17.3271C19.3339 18.3731 17.9604 20.9015 15.6417 21.6034C15.4727 21.2301 15.1721 20.9282 14.7944 20.7523C14.4168 20.5764 13.987 20.5382 13.5829 20.6445C13.1788 20.7508 12.8271 20.9946 12.5915 21.3318C12.3559 21.6691 12.252 22.0773 12.2986 22.4828C12.3452 22.8882 12.5392 23.264 12.8455 23.542C13.1518 23.8201 13.5501 23.9821 13.9683 23.9986C14.3865 24.0151 14.797 23.8851 15.1254 23.6322C15.4537 23.3792 15.6783 23.02 15.7585 22.6196C17.9993 22.0288 19.598 20.0343 20.4849 18.3217C20.7676 18.52 21.1069 18.627 21.4552 18.6279C21.8963 18.6236 22.318 18.451 22.6299 18.147C22.9418 17.843 23.119 17.4318 23.1233 17.0019V16.9125C23.1923 16.9241 23.2619 16.9313 23.3319 16.9342C23.7729 16.93 24.1947 16.7573 24.5066 16.4533C24.8185 16.1493 24.9957 15.7382 25 15.3082V12.0997C24.9987 11.6716 24.8259 11.2609 24.5184 10.9552C24.211 10.6495 23.7932 10.4728 23.3541 10.4629Z" fill="#BBBBBB"/>
</svg>
