<svg width="26" height="24" viewBox="0 0 26 24" fill="none" xmlns="http://www.w3.org/2000/svg">
<path d="M17.4816 17.4712C16.1932 18.7597 12.9186 17.5731 10.1686 14.823C7.41855 12.073 6.23196 8.79842 7.52041 7.50997L8.85468 6.1757C9.08894 5.94143 9.4658 5.94143 9.70006 6.1757L11.0649 7.54053C11.2992 7.77479 11.2992 8.15165 11.0649 8.38591L10.138 9.31277C9.41997 10.0308 10.0515 11.8489 11.5793 13.3818C13.1071 14.9147 14.9659 15.5767 15.6839 14.8587L16.6057 13.9318C16.84 13.6976 17.2168 13.6976 17.4511 13.9318L18.8159 15.2966C19.0502 15.5309 19.0502 15.9078 18.8159 16.142L17.4816 17.4712Z" fill="#999999"/>
<path d="M4.9787 20.7749C6.9503 22.5888 9.44239 23.7034 12.1132 23.9505C14.4161 24.166 16.7662 23.6718 18.8009 22.5888C22.7651 20.4857 25.273 16.185 25.152 11.7003C25.0416 7.25239 22.376 3.07787 18.3382 1.17462C16.3035 0.212485 14.0112 -0.192349 11.7715 0.0863033C9.49497 0.364955 7.38668 1.25349 5.5991 2.68881C1.87147 5.66986 0.299456 10.8065 1.6454 15.3754C1.84519 16.0536 2.11332 16.716 2.42352 17.3522C2.42352 17.0893 2.42352 16.8212 2.42352 16.5583C1.74529 17.8622 1.06706 19.1608 0.388835 20.4647C0.288941 20.654 0.194305 20.838 0.0944105 21.0273C-0.221044 21.6371 0.299456 22.3574 0.982942 22.1839C2.37094 21.8317 3.7642 21.4794 5.1522 21.1271C5.34673 21.0798 5.54652 21.0273 5.74105 20.9799C6.1564 20.8748 6.40351 20.4121 6.2931 20.0073C6.17743 19.5867 5.7358 19.3501 5.32045 19.4552C3.93245 19.8075 2.53919 20.1597 1.15118 20.512C0.956654 20.5593 0.756866 20.6119 0.562335 20.6592C0.85676 21.043 1.15644 21.4321 1.45087 21.8159C2.066 20.6592 2.67063 19.4973 3.27525 18.3301C3.41194 18.0725 3.54338 17.8149 3.68008 17.5572C3.71163 17.4994 3.74317 17.4363 3.77472 17.3785C3.79575 17.3364 3.80626 17.3154 3.82729 17.2628C3.96925 16.9106 3.81678 16.6319 3.66957 16.3165C3.05969 15.0073 2.73897 13.4774 2.73897 12C2.73897 11.695 2.74949 11.3848 2.77578 11.0799C2.78629 10.9327 2.80207 10.7907 2.81784 10.6435C2.8231 10.6067 2.82835 10.5699 2.83361 10.5331C2.83361 10.5436 2.81784 10.6593 2.82835 10.5647C2.83887 10.4805 2.85464 10.3964 2.86516 10.3176C2.96505 9.72345 3.11752 9.1346 3.31205 8.56153C3.35937 8.43009 3.40669 8.29865 3.45401 8.16721C3.48029 8.10412 3.50658 8.03577 3.53287 7.97268C3.56441 7.88856 3.52761 7.98845 3.52235 7.99896C3.53813 7.9569 3.55916 7.91484 3.58019 7.87278C3.69585 7.6099 3.82729 7.34702 3.96399 7.0894C4.23738 6.57942 4.55284 6.09572 4.89984 5.63831C4.95242 5.5647 4.88933 5.64883 4.88407 5.65934C4.9051 5.63305 4.92613 5.60676 4.94716 5.58048C4.98922 5.5279 5.03128 5.47532 5.0786 5.41749C5.17323 5.30182 5.27313 5.19142 5.37302 5.07575C5.5623 4.86019 5.76208 4.65514 5.97239 4.45535C6.18795 4.25031 6.41402 4.05052 6.64536 3.86125C6.69793 3.81919 6.75051 3.77713 6.80834 3.72981C6.87669 3.67197 6.79257 3.74032 6.78731 3.74558C6.8136 3.72455 6.83989 3.70352 6.87143 3.68249C6.99236 3.59311 7.11328 3.50373 7.23421 3.41961C7.71265 3.09364 8.21212 2.80447 8.73262 2.55211C8.8588 2.49428 8.98498 2.43644 9.11116 2.37861C9.24786 2.31552 9.03756 2.4049 9.17951 2.35232C9.25312 2.32078 9.33198 2.29449 9.40559 2.26294C9.67898 2.15779 9.95763 2.06315 10.2415 1.98429C10.5255 1.90017 10.8146 1.83182 11.1038 1.76873C11.2563 1.73718 11.4087 1.7109 11.5612 1.68461C11.6348 1.67409 11.7032 1.66358 11.7768 1.65306C11.6295 1.67409 11.8398 1.64781 11.8924 1.63729C12.5023 1.56894 13.1174 1.54791 13.7273 1.57946C14.0323 1.59523 14.3319 1.62152 14.6369 1.65832C14.5002 1.64255 14.6632 1.66358 14.7105 1.66884C14.7841 1.67935 14.8524 1.68987 14.9208 1.70564C15.0733 1.73193 15.2257 1.76347 15.3782 1.79502C15.9513 1.9212 16.5191 2.0947 17.0659 2.31026C17.0974 2.32078 17.2657 2.38912 17.1973 2.36284C17.129 2.33655 17.2972 2.4049 17.3288 2.42067C17.476 2.48902 17.6232 2.55737 17.7704 2.63097C18.028 2.76241 18.2804 2.89911 18.5328 3.04632C18.7799 3.19353 19.0217 3.35126 19.2583 3.5195C19.3161 3.56156 19.3687 3.59837 19.4265 3.64043C19.4528 3.66146 19.5948 3.76661 19.5369 3.72455C19.4791 3.68249 19.6211 3.7929 19.6474 3.81393C19.7104 3.8665 19.7735 3.91382 19.8314 3.9664C20.2678 4.33443 20.6831 4.73926 21.0564 5.17038C21.1458 5.27554 21.2351 5.38069 21.3245 5.48584C21.3666 5.53842 21.4086 5.59099 21.456 5.64883C21.3666 5.53842 21.4928 5.7014 21.5191 5.7382C21.6926 5.96954 21.8503 6.20613 22.0028 6.45323C22.1605 6.7056 22.313 6.96848 22.4497 7.23662C22.5127 7.3628 22.5758 7.48372 22.6337 7.6099C22.6652 7.67299 22.6915 7.73609 22.723 7.79918C22.7388 7.83072 22.7493 7.86227 22.7651 7.89381C22.7704 7.90959 22.8282 8.04103 22.7914 7.96216C22.7651 7.89381 22.8335 8.06731 22.844 8.0936C22.8703 8.15669 22.8965 8.22504 22.9176 8.28813C22.9702 8.43009 23.0227 8.5773 23.07 8.71925C23.1594 8.9979 23.2435 9.28181 23.3119 9.57098C23.3802 9.86015 23.4381 10.1546 23.4854 10.449C23.4907 10.4963 23.5169 10.6646 23.4959 10.5226C23.5064 10.5962 23.5117 10.6646 23.5222 10.7382C23.538 10.8959 23.5537 11.0536 23.5643 11.2113C23.6063 11.837 23.5958 12.4627 23.538 13.0883C23.5327 13.1619 23.5222 13.2303 23.5169 13.3039C23.5117 13.3564 23.4854 13.5194 23.5064 13.3827C23.4854 13.5352 23.4591 13.6929 23.4328 13.8454C23.3802 14.1398 23.3119 14.429 23.233 14.7129C23.1542 14.9968 23.07 15.2755 22.9702 15.5541C22.9228 15.6855 22.8703 15.817 22.8229 15.9484C22.8124 15.98 22.7966 16.0115 22.7809 16.0483C22.7861 16.0378 22.8282 15.9379 22.7914 16.022C22.7598 16.0956 22.7283 16.1692 22.6915 16.2429C22.4496 16.7686 22.171 17.2786 21.8503 17.757C21.7767 17.8727 21.6978 17.9884 21.6137 18.0988C21.5716 18.1566 21.5348 18.2092 21.4928 18.267C21.4717 18.2933 21.4507 18.3196 21.4297 18.3511C21.3561 18.4458 21.5033 18.2618 21.4244 18.3564C21.2404 18.593 21.0459 18.8191 20.8408 19.0399C20.4518 19.4605 20.0312 19.8496 19.579 20.2123C19.5527 20.2334 19.5264 20.2544 19.5001 20.2754C19.5107 20.2702 19.5948 20.2018 19.5212 20.2596C19.4633 20.3017 19.4108 20.3438 19.3529 20.3806C19.232 20.4699 19.1111 20.5541 18.9849 20.6382C18.7431 20.8012 18.5012 20.9484 18.2488 21.0903C17.9965 21.2323 17.7389 21.3637 17.476 21.4847C17.4129 21.5162 17.3498 21.5425 17.2867 21.5688C17.2446 21.5898 17.0922 21.6476 17.2184 21.6003C17.0764 21.6582 16.9344 21.7107 16.7925 21.7633C16.2247 21.9684 15.6411 22.1313 15.0522 22.2418C14.9103 22.268 14.7683 22.2891 14.6264 22.3154C14.4739 22.3416 14.7052 22.3101 14.5475 22.3259C14.4634 22.3364 14.3793 22.3469 14.2951 22.3522C13.9902 22.3837 13.6853 22.3995 13.3803 22.4047C13.0281 22.41 12.6758 22.4047 12.3288 22.3784C12.1553 22.3679 11.9818 22.3469 11.8136 22.3311C11.7189 22.3206 11.7925 22.3311 11.8083 22.3311C11.7662 22.3259 11.7242 22.3206 11.6821 22.3101C11.5822 22.2943 11.4876 22.2786 11.3877 22.2628C9.96289 22.0104 8.79571 21.5583 7.59172 20.8012C7.31307 20.6277 7.04493 20.4384 6.78205 20.2386C6.70845 20.186 6.76628 20.2228 6.78205 20.2386C6.75051 20.2123 6.71896 20.186 6.68742 20.1598C6.62433 20.1072 6.56124 20.0546 6.49815 20.002C6.36145 19.8864 6.23001 19.7707 6.09857 19.6498C5.78311 19.3606 5.29416 19.3396 4.98396 19.6498C4.68954 19.9547 4.66325 20.4857 4.9787 20.7749Z" fill="#999999"/>
</svg>
